<svg width="40" height="40" viewBox="0 0 40 40" fill="none" xmlns="http://www.w3.org/2000/svg">
<path d="M0 0H40V40H0V0Z" fill="white" fill-opacity="0.01"/>
<path d="M3.33317 11.6666L2.58781 10.1759C2.02317 10.4582 1.6665 11.0354 1.6665 11.6666H3.33317ZM19.9998 3.33329L20.7452 1.84258C20.276 1.60797 19.7237 1.60797 19.2545 1.84258L19.9998 3.33329ZM36.6665 11.6666H38.3332C38.3332 11.0354 37.9765 10.4582 37.4118 10.1759L36.6665 11.6666ZM36.6665 28.3333L37.4118 29.824C37.9765 29.5417 38.3332 28.9645 38.3332 28.3333H36.6665ZM19.9998 36.6666L19.2545 38.1574C19.7237 38.392 20.276 38.392 20.7452 38.1574L19.9998 36.6666ZM3.33317 28.3333H1.6665C1.6665 28.9645 2.02317 29.5417 2.58781 29.824L3.33317 28.3333ZM4.07853 13.1574L20.7452 4.824L19.2545 1.84258L2.58781 10.1759L4.07853 13.1574ZM34.9998 11.6666V28.3333H38.3332V11.6666H34.9998ZM35.9212 26.8425L19.2545 35.1759L20.7452 38.1574L37.4118 29.824L35.9212 26.8425ZM20.7452 35.1759L4.07853 26.8425L2.58781 29.824L19.2545 38.1574L20.7452 35.1759ZM4.99984 28.3333V11.6666H1.6665V28.3333H4.99984ZM37.4118 10.1759L20.7452 1.84258L19.2545 4.824L35.9212 13.1574L37.4118 10.1759Z" fill="black"/>
<path d="M3.3335 11.6666L20.0002 20" stroke="black" stroke-width="3" stroke-linecap="round" stroke-linejoin="round"/>
<path d="M20 36.6667V20" stroke="black" stroke-width="3" stroke-linecap="round" stroke-linejoin="round"/>
<path d="M36.6667 11.6666L20 20" stroke="black" stroke-width="3" stroke-linecap="round" stroke-linejoin="round"/>
<path d="M29.0785 8.99079C29.9019 8.57912 30.2355 7.57798 29.824 6.75468C29.4123 5.93139 28.4111 5.59768 27.5879 6.00933L29.0785 8.99079ZM10.9212 14.3426C10.0979 14.7543 9.76421 15.7555 10.1758 16.5787C10.5875 17.402 11.5886 17.7357 12.4119 17.3241L10.9212 14.3426ZM27.5879 6.00933L10.9212 14.3426L12.4119 17.3241L29.0785 8.99079L27.5879 6.00933Z" fill="black"/>
</svg>
