<svg width="40" height="40" viewBox="0 0 40 40" xmlns="http://www.w3.org/2000/svg">
<path d="M6.66667 21.6667H16.6667C17.5833 21.6667 18.3333 20.9167 18.3333 20V6.66667C18.3333 5.75 17.5833 5 16.6667 5H6.66667C5.75 5 5 5.75 5 6.66667V20C5 20.9167 5.75 21.6667 6.66667 21.6667ZM6.66667 35H16.6667C17.5833 35 18.3333 34.25 18.3333 33.3333V26.6667C18.3333 25.75 17.5833 25 16.6667 25H6.66667C5.75 25 5 25.75 5 26.6667V33.3333C5 34.25 5.75 35 6.66667 35ZM23.3333 35H33.3333C34.25 35 35 34.25 35 33.3333V20C35 19.0833 34.25 18.3333 33.3333 18.3333H23.3333C22.4167 18.3333 21.6667 19.0833 21.6667 20V33.3333C21.6667 34.25 22.4167 35 23.3333 35ZM21.6667 6.66667V13.3333C21.6667 14.25 22.4167 15 23.3333 15H33.3333C34.25 15 35 14.25 35 13.3333V6.66667C35 5.75 34.25 5 33.3333 5H23.3333C22.4167 5 21.6667 5.75 21.6667 6.66667Z" fill="black"/>
</svg>
