<svg width="40" height="40" viewBox="0 0 40 40" fill="none" xmlns="http://www.w3.org/2000/svg">
<path d="M39.2708 8.20312L29.0729 0.546875C28.6042 0.195312 27.9688 0 27.3021 0H26.6667V10H40V9.52344C40 9.03125 39.7396 8.55469 39.2708 8.20312ZM23.3333 10.625V0H2.5C1.11458 0 0 0.835938 0 1.875V38.125C0 39.1641 1.11458 40 2.5 40H37.5C38.8854 40 40 39.1641 40 38.125V12.5H25.8333C24.4583 12.5 23.3333 11.6562 23.3333 10.625ZM6.66667 5.625C6.66667 5.27969 7.03958 5 7.5 5H15.8333C16.2937 5 16.6667 5.27969 16.6667 5.625V6.875C16.6667 7.22031 16.2937 7.5 15.8333 7.5H7.5C7.03958 7.5 6.66667 7.22031 6.66667 6.875V5.625ZM6.66667 11.875V10.625C6.66667 10.2797 7.03958 10 7.5 10H15.8333C16.2937 10 16.6667 10.2797 16.6667 10.625V11.875C16.6667 12.2203 16.2937 12.5 15.8333 12.5H7.5C7.03958 12.5 6.66667 12.2203 6.66667 11.875ZM21.6667 32.4906V34.375C21.6667 34.7203 21.2937 35 20.8333 35H19.1667C18.7062 35 18.3333 34.7203 18.3333 34.375V32.4773C17.1573 32.432 16.0135 32.1242 15.0656 31.5906C14.6594 31.3617 14.6385 30.9055 15.0062 30.6422L16.2302 29.7664C16.5187 29.5602 16.9479 29.5508 17.2854 29.7094C17.6885 29.8984 18.1458 30 18.6208 30H21.549C22.226 30 22.7781 29.5375 22.7781 28.9695C22.7781 28.5047 22.4021 28.0953 21.8646 27.975L17.1771 26.9203C15.2406 26.4844 13.8875 25.0906 13.8875 23.5305C13.8875 21.6148 15.8719 20.0586 18.3323 20.0094V18.125C18.3323 17.7797 18.7052 17.5 19.1656 17.5H20.8323C21.2927 17.5 21.6656 17.7797 21.6656 18.125V20.0227C22.8417 20.068 23.9854 20.375 24.9333 20.9094C25.3396 21.1383 25.3604 21.5945 24.9927 21.8578L23.7687 22.7336C23.4802 22.9398 23.051 22.9492 22.7135 22.7906C22.3104 22.6008 21.8531 22.5 21.3781 22.5H18.45C17.7729 22.5 17.2208 22.9625 17.2208 23.5305C17.2208 23.9953 17.5969 24.4047 18.1344 24.525L22.8219 25.5797C24.7583 26.0156 26.1115 27.4094 26.1115 28.9695C26.1115 30.8859 24.1271 32.4414 21.6667 32.4906Z" fill="black"/>
</svg>
