<svg xmlns="http://www.w3.org/2000/svg" viewBox="0 0 516.58 679.25"><defs><style>.cls-1{font-size:98.45px;font-family:Lato-Black, Lato;font-weight:800;}.cls-2{letter-spacing:-0.03em;}.cls-3{letter-spacing:-0.03em;}</style></defs><g id="Layer_5" data-name="Layer 5"><rect x="66.51" width="30.07" height="68.84"/><rect x="66.62" y="149.74" width="30.07" height="411.23"/><rect x="126.51" y="228.26" width="30.07" height="332.7"/><rect x="126.51" width="30.07" height="149.74"/><rect x="186.51" width="30.07" height="203.34"/><rect x="186.51" y="290.37" width="30.07" height="270.59"/><rect x="246.51" width="30.07" height="268.22"/><rect x="246.51" y="351.1" width="30.07" height="209.87"/><rect x="306.51" width="30.07" height="325.29"/><rect x="306.51" y="396.79" width="30.07" height="164.18"/><rect x="366.51" width="30.07" height="378.99"/><rect x="366.51" y="456.13" width="30.07" height="104.84"/><rect x="426.51" y="515.08" width="30.07" height="45.89"/><rect x="426.51" width="30.07" height="428.84"/><text class="cls-1" transform="translate(0 649.76) scale(1.01 1)">N<tspan class="cls-2" x="76.5" y="0">O</tspan><tspan x="154.08" y="0">VERIN</tspan><tspan class="cls-3" x="452.35" y="0">T</tspan></text><polygon points="36.58 19.33 36.58 0 6.51 0 6.51 541.19 6.51 560.97 36.58 560.97 36.58 547.86 36.58 541.19 23.57 541.19 23.57 19.33 36.58 19.33"/><polygon points="486.51 19.33 486.51 0 516.58 0 516.58 541.19 516.58 560.97 486.51 560.97 486.51 547.86 486.51 541.19 499.52 541.19 499.52 19.33 486.51 19.33"/></g></svg>